<svg xmlns="http://www.w3.org/2000/svg" xmlns:xlink="http://www.w3.org/1999/xlink" viewBox="0 0 1228.5 324.86"><defs><style>.cls-1{fill:url(#linear-gradient);}.cls-2{fill:url(#linear-gradient-2);}.cls-3{fill:url(#linear-gradient-3);}.cls-4{fill:url(#linear-gradient-4);}.cls-5{fill:url(#linear-gradient-5);}.cls-6{fill:url(#linear-gradient-6);}.cls-7{fill:url(#linear-gradient-7);}.cls-8{fill:url(#linear-gradient-8);}.cls-9{fill:url(#linear-gradient-9);}.cls-10{fill:url(#linear-gradient-10);}.cls-11{fill:url(#linear-gradient-11);}.cls-12{fill:url(#linear-gradient-12);}.cls-13{fill:url(#linear-gradient-13);}.cls-14{fill:url(#linear-gradient-14);}.cls-15{fill:url(#linear-gradient-15);}.cls-16{fill:url(#linear-gradient-16);}.cls-17{fill:url(#linear-gradient-17);}.cls-18{fill:url(#linear-gradient-18);}.cls-19{fill:none;}.cls-20{clip-path:url(#clip-path);}.cls-21{mask:url(#mask);}.cls-22{fill:url(#linear-gradient-19);}.cls-23{mask:url(#mask-2);}.cls-24{fill:url(#linear-gradient-20);}.cls-25{mask:url(#mask-3);}.cls-26{fill:url(#linear-gradient-21);}.cls-27{mask:url(#mask-4);}.cls-28{fill:url(#linear-gradient-22);}.cls-29{mask:url(#mask-5);}.cls-30{fill:url(#linear-gradient-23);}.cls-31{mask:url(#mask-6);}.cls-32{fill:url(#linear-gradient-24);}.cls-33{mask:url(#mask-7);}.cls-34{fill:url(#linear-gradient-25);}.cls-35{mask:url(#mask-8);}.cls-36{fill:url(#linear-gradient-26);}.cls-37{mask:url(#mask-9);}.cls-38{fill:url(#linear-gradient-27);}.cls-39{mask:url(#mask-10);}.cls-40{fill:url(#linear-gradient-28);}.cls-41{mask:url(#mask-11);}.cls-42{fill:url(#linear-gradient-29);}.cls-43{mask:url(#mask-12);}.cls-44{fill:url(#linear-gradient-30);}.cls-45{mask:url(#mask-13);}.cls-46{fill:url(#linear-gradient-31);}.cls-47{mask:url(#mask-14);}.cls-48{fill:url(#linear-gradient-32);}.cls-49{mask:url(#mask-15);}.cls-50{fill:url(#linear-gradient-33);}.cls-51{mask:url(#mask-16);}.cls-52{fill:url(#linear-gradient-34);}.cls-53{mask:url(#mask-17);}.cls-54{fill:url(#linear-gradient-35);}.cls-55{fill:url(#linear-gradient-36);}.cls-56{fill:url(#linear-gradient-37);}.cls-57{fill:url(#linear-gradient-38);}.cls-58{fill:url(#linear-gradient-39);}.cls-59{mask:url(#mask-18);}.cls-60{fill:url(#linear-gradient-40);}.cls-61{fill:url(#linear-gradient-41);}</style><linearGradient id="linear-gradient" x1="9752.16" y1="16214.95" x2="9947.97" y2="16214.95" gradientTransform="matrix(0.17, -0.1, 0.07, 0.11, -2613.67, -683.66)" gradientUnits="userSpaceOnUse"><stop offset="0.93" stop-color="#fff"/><stop offset="0.96" stop-color="#fdfdfd"/><stop offset="0.97" stop-color="#f6f6f6"/><stop offset="0.97" stop-color="#ebebeb"/><stop offset="0.98" stop-color="#dadada"/><stop offset="0.98" stop-color="#c4c4c4"/><stop offset="0.99" stop-color="#a8a8a8"/><stop offset="0.99" stop-color="#888"/><stop offset="0.99" stop-color="#626262"/><stop offset="1" stop-color="#373737"/><stop offset="1" stop-color="#090909"/><stop offset="1"/></linearGradient><linearGradient id="linear-gradient-2" x1="5695.16" y1="9520.16" x2="5890.96" y2="9520.16" gradientTransform="matrix(0.19, -0.15, 0.16, 0.2, -2516.71, -812.8)" gradientUnits="userSpaceOnUse"><stop offset="0.9" stop-color="#fff"/><stop offset="0.94" stop-color="#fdfdfd"/><stop offset="0.95" stop-color="#f6f6f6"/><stop offset="0.96" stop-color="#ebebeb"/><stop offset="0.97" stop-color="#dadada"/><stop offset="0.97" stop-color="#c4c4c4"/><stop offset="0.98" stop-color="#a8a8a8"/><stop offset="0.99" stop-color="#888"/><stop offset="0.99" stop-color="#626262"/><stop offset="1" stop-color="#373737"/><stop offset="1" stop-color="#090909"/><stop offset="1"/></linearGradient><linearGradient id="linear-gradient-3" x1="974.58" y1="3677.22" x2="1170.38" y2="3677.22" gradientTransform="matrix(0.2, -0.27, 0.6, 0.44, -2320.27, -1090.97)" gradientUnits="userSpaceOnUse"><stop offset="0.32" stop-color="#fff"/><stop offset="0.57" stop-color="#fdfdfd"/><stop offset="0.66" stop-color="#f6f6f6"/><stop offset="0.73" stop-color="#ebebeb"/><stop offset="0.78" stop-color="#dadada"/><stop offset="0.83" stop-color="#c4c4c4"/><stop offset="0.87" stop-color="#a8a8a8"/><stop offset="0.9" stop-color="#888"/><stop offset="0.94" stop-color="#626262"/><stop offset="0.97" stop-color="#373737"/><stop offset="0.99" stop-color="#090909"/><stop offset="1"/></linearGradient><linearGradient id="linear-gradient-4" x1="10.11" y1="3852.12" x2="205.92" y2="3852.12" gradientTransform="matrix(0.17, -0.29, 0.65, 0.37, -2392.84, -1174.27)" xlink:href="#linear-gradient-3"/><linearGradient id="linear-gradient-5" x1="-990" y1="3981.04" x2="-794.2" y2="3981.04" gradientTransform="matrix(0.14, -0.3, 0.68, 0.3, -2473.71, -1249.52)" xlink:href="#linear-gradient-3"/><linearGradient id="linear-gradient-6" x1="-2014.81" y1="4062.57" x2="-1819.01" y2="4062.57" gradientTransform="matrix(0.1, -0.32, 0.71, 0.23, -2562.01, -1315.9)" xlink:href="#linear-gradient-3"/><linearGradient id="linear-gradient-7" x1="-3053.09" y1="4095.81" x2="-2857.29" y2="4095.81" gradientTransform="matrix(0.07, -0.33, 0.73, 0.15, -2656.76, -1372.7)" xlink:href="#linear-gradient-3"/><linearGradient id="linear-gradient-8" x1="-4093.46" y1="4080.4" x2="-3897.66" y2="4080.4" gradientTransform="matrix(0.03, -0.33, 0.74, 0.08, -2756.93, -1419.28)" xlink:href="#linear-gradient-3"/><linearGradient id="linear-gradient-9" x1="-5147.01" y1="4016.52" x2="-4928.73" y2="4016.52" gradientTransform="matrix(0, -0.33, 0.75, 0, -2861.41, -1455.13)" xlink:href="#linear-gradient-3"/><linearGradient id="linear-gradient-10" x1="-162.22" y1="1016.9" x2="33.58" y2="1016.9" gradientTransform="matrix(0.98, -0.21, 0.2, 0.92, -16.82, -670.29)" gradientUnits="userSpaceOnUse"><stop offset="0"/><stop offset="1" stop-color="#fff"/></linearGradient><linearGradient id="linear-gradient-11" x1="739.06" y1="4237.45" x2="934.87" y2="4237.45" gradientTransform="matrix(0.59, -0.3, 0.2, 0.39, -1203.29, -1203.33)" gradientUnits="userSpaceOnUse"><stop offset="0" stop-color="#fff"/><stop offset="0.16" stop-color="#c2c2c2"/><stop offset="0.32" stop-color="#888"/><stop offset="0.49" stop-color="#575757"/><stop offset="0.64" stop-color="#313131"/><stop offset="0.78" stop-color="#161616"/><stop offset="0.9" stop-color="#060606"/><stop offset="1"/></linearGradient><linearGradient id="linear-gradient-12" x1="843.51" y1="4022.92" x2="1039.31" y2="4022.92" gradientTransform="matrix(0.6, -0.28, 0.19, 0.4, -1177.9, -1135.48)" gradientUnits="userSpaceOnUse"><stop offset="0" stop-color="#fff"/><stop offset="0.06" stop-color="#dadada"/><stop offset="0.16" stop-color="#a7a7a7"/><stop offset="0.26" stop-color="#7b7b7b"/><stop offset="0.37" stop-color="#555"/><stop offset="0.48" stop-color="#363636"/><stop offset="0.59" stop-color="#1e1e1e"/><stop offset="0.71" stop-color="#0d0d0d"/><stop offset="0.84" stop-color="#030303"/><stop offset="1"/></linearGradient><linearGradient id="linear-gradient-13" x1="-5683.28" y1="3904.85" x2="-5487.47" y2="3904.85" gradientTransform="matrix(-0.04, -0.39, 0.74, -0.08, -2988.74, -1666.91)" xlink:href="#linear-gradient-3"/><linearGradient id="linear-gradient-14" x1="4912.21" y1="2196.4" x2="5108.02" y2="2196.4" gradientTransform="matrix(0.3, -0.14, 0.3, 0.68, -2106.27, -588.33)" xlink:href="#linear-gradient-3"/><linearGradient id="linear-gradient-15" x1="4272.79" y1="2563.22" x2="4468.59" y2="2563.22" gradientTransform="matrix(0.29, -0.17, 0.37, 0.65, -2127.47, -696.74)" xlink:href="#linear-gradient-3"/><linearGradient id="linear-gradient-16" x1="3551" y1="2898.19" x2="3746.81" y2="2898.19" gradientTransform="matrix(0.27, -0.2, 0.44, 0.6, -2159.88, -802.35)" xlink:href="#linear-gradient-3"/><linearGradient id="linear-gradient-17" x1="2754.77" y1="3197.63" x2="2950.57" y2="3197.63" gradientTransform="matrix(0.25, -0.22, 0.5, 0.55, -2203.15, -903.99)" xlink:href="#linear-gradient-3"/><linearGradient id="linear-gradient-18" x1="1892.81" y1="3458.25" x2="2088.62" y2="3458.25" gradientTransform="matrix(0.22, -0.25, 0.55, 0.5, -2256.81, -1000.55)" xlink:href="#linear-gradient-3"/><clipPath id="clip-path"><path class="cls-19" d="M131.66,255.24A61.61,61.61,0,0,1,71.45,206.6l91.13-66.2a61.58,61.58,0,0,1-30.92,114.84Z"/></clipPath><mask id="mask" x="67.12" y="185.74" width="45.56" height="41.22" maskUnits="userSpaceOnUse"><polygon class="cls-1" points="99.76 185.74 83.44 195.16 67.12 204.59 80.03 226.96 112.68 208.11 99.76 185.74"/></mask><linearGradient id="linear-gradient-19" x1="9850.06" y1="16313.64" x2="9850.06" y2="16116.27" gradientTransform="matrix(0.17, -0.1, 0.07, 0.11, -2613.67, -683.66)" gradientUnits="userSpaceOnUse"><stop offset="0.7" stop-opacity="0"/><stop offset="1" stop-opacity="0.6"/></linearGradient><mask id="mask-2" x="60.97" y="182.65" width="68.18" height="68.76" maskUnits="userSpaceOnUse"><polygon class="cls-2" points="97.27 182.65 79.12 197.35 60.97 212.04 92.86 251.42 129.15 222.03 97.27 182.65"/></mask><linearGradient id="linear-gradient-20" x1="5793.06" y1="9618.84" x2="5793.06" y2="9421.48" gradientTransform="matrix(0.19, -0.15, 0.16, 0.2, -2516.71, -812.8)" gradientUnits="userSpaceOnUse"><stop offset="0.7" stop-opacity="0"/><stop offset="1" stop-opacity="0.7"/></linearGradient><mask id="mask-3" x="61.31" y="146.52" width="154.64" height="136.33" maskUnits="userSpaceOnUse"><polygon class="cls-11" points="176.35 146.52 118.83 175.82 61.31 205.13 100.91 282.85 215.95 224.23 176.35 146.52"/></mask><linearGradient id="linear-gradient-21" x1="836.97" y1="4336.13" x2="836.97" y2="4138.77" gradientTransform="matrix(0.59, -0.3, 0.2, 0.39, -1203.29, -1203.33)" gradientUnits="userSpaceOnUse"><stop offset="0.5" stop-opacity="0.4"/><stop offset="0.93" stop-opacity="0.21"/><stop offset="1" stop-opacity="0"/></linearGradient><mask id="mask-4" x="59.13" y="146.66" width="153.88" height="133.62" maskUnits="userSpaceOnUse"><polygon class="cls-12" points="176.14 146.66 117.64 173.94 59.13 201.22 95.99 280.28 213.01 225.71 176.14 146.66"/></mask><linearGradient id="linear-gradient-22" x1="941.41" y1="4121.6" x2="941.41" y2="3924.23" gradientTransform="matrix(0.6, -0.28, 0.19, 0.4, -1177.9, -1135.48)" gradientUnits="userSpaceOnUse"><stop offset="0.85" stop-opacity="0.2"/><stop offset="0.98" stop-opacity="0.11"/><stop offset="1" stop-opacity="0"/></linearGradient><mask id="mask-5" x="59.36" y="174.54" width="154.4" height="92.22" maskUnits="userSpaceOnUse"><polygon class="cls-13" points="59.36 189.91 63.4 228.33 67.43 266.75 213.75 251.37 205.68 174.54 59.36 189.91"/></mask><linearGradient id="linear-gradient-23" x1="-5585.38" y1="4003.53" x2="-5585.38" y2="3806.17" gradientTransform="matrix(-0.04, -0.39, 0.74, -0.08, -2988.74, -1666.91)" gradientUnits="userSpaceOnUse"><stop offset="0" stop-opacity="0"/><stop offset="1" stop-opacity="0.2"/></linearGradient><mask id="mask-6" x="23.68" y="148.57" width="119.39" height="160.92" maskUnits="userSpaceOnUse"><polygon class="cls-14" points="83.22 148.57 53.45 161.83 23.68 175.09 83.52 309.49 143.07 282.98 83.22 148.57"/></mask><linearGradient id="linear-gradient-24" x1="5010.11" y1="2295.08" x2="5010.11" y2="2097.72" gradientTransform="matrix(0.3, -0.14, 0.3, 0.68, -2106.27, -588.33)" gradientUnits="userSpaceOnUse"><stop offset="0" stop-opacity="0"/><stop offset="1" stop-opacity="0.7"/></linearGradient><mask id="mask-7" x="22.99" y="150.5" width="130.01" height="160.01" maskUnits="userSpaceOnUse"><polygon class="cls-15" points="79.44 150.5 51.21 166.8 22.99 183.09 96.55 310.51 153 277.92 79.44 150.5"/></mask><linearGradient id="linear-gradient-25" x1="4370.69" y1="2661.91" x2="4370.69" y2="2464.54" gradientTransform="matrix(0.29, -0.17, 0.37, 0.65, -2127.47, -696.74)" xlink:href="#linear-gradient-24"/><mask id="mask-8" x="23.14" y="152.82" width="139.21" height="157.34" maskUnits="userSpaceOnUse"><polygon class="cls-16" points="75.87 152.82 49.51 171.97 23.14 191.13 109.62 310.16 162.35 271.84 75.87 152.82"/></mask><linearGradient id="linear-gradient-26" x1="3648.91" y1="2996.87" x2="3648.91" y2="2799.51" gradientTransform="matrix(0.27, -0.2, 0.44, 0.6, -2159.88, -802.35)" xlink:href="#linear-gradient-24"/><mask id="mask-9" x="24.13" y="155.49" width="146.89" height="152.95" maskUnits="userSpaceOnUse"><polygon class="cls-17" points="72.57 155.49 48.35 177.3 24.13 199.11 122.58 308.44 171.02 264.83 72.57 155.49"/></mask><linearGradient id="linear-gradient-27" x1="2852.67" y1="3296.31" x2="2852.67" y2="3098.94" gradientTransform="matrix(0.25, -0.22, 0.5, 0.55, -2203.15, -903.99)" xlink:href="#linear-gradient-24"/><mask id="mask-10" x="25.95" y="158.5" width="152.95" height="146.89" maskUnits="userSpaceOnUse"><polygon class="cls-18" points="69.56 158.5 47.76 182.72 25.95 206.94 135.28 305.38 178.9 256.94 69.56 158.5"/></mask><linearGradient id="linear-gradient-28" x1="1990.72" y1="3556.94" x2="1990.72" y2="3359.57" gradientTransform="matrix(0.22, -0.25, 0.55, 0.5, -2256.81, -1000.55)" xlink:href="#linear-gradient-24"/><mask id="mask-11" x="28.58" y="161.8" width="157.34" height="139.21" maskUnits="userSpaceOnUse"><polygon class="cls-3" points="66.89 161.8 47.73 188.17 28.57 214.54 147.6 301.01 185.92 248.28 66.89 161.8"/></mask><linearGradient id="linear-gradient-29" x1="1072.48" y1="3775.9" x2="1072.48" y2="3578.54" gradientTransform="matrix(0.2, -0.27, 0.6, 0.44, -2320.27, -1090.97)" xlink:href="#linear-gradient-24"/><mask id="mask-12" x="31.98" y="165.37" width="160.01" height="130.01" maskUnits="userSpaceOnUse"><polygon class="cls-4" points="64.58 165.37 48.28 193.59 31.98 221.82 159.4 295.38 191.99 238.93 64.58 165.37"/></mask><linearGradient id="linear-gradient-30" x1="108.02" y1="3950.8" x2="108.02" y2="3753.44" gradientTransform="matrix(0.17, -0.29, 0.65, 0.37, -2392.84, -1174.27)" xlink:href="#linear-gradient-24"/><mask id="mask-13" x="36.13" y="169.15" width="160.92" height="119.39" maskUnits="userSpaceOnUse"><polygon class="cls-5" points="62.65 169.15 49.39 198.93 36.13 228.7 170.54 288.54 197.05 228.99 62.65 169.15"/></mask><linearGradient id="linear-gradient-31" x1="-892.1" y1="4079.72" x2="-892.1" y2="3882.36" gradientTransform="matrix(0.14, -0.3, 0.68, 0.3, -2473.71, -1249.52)" xlink:href="#linear-gradient-24"/><mask id="mask-14" x="40.98" y="173.12" width="160.07" height="107.46" maskUnits="userSpaceOnUse"><polygon class="cls-6" points="61.12 173.12 51.05 204.12 40.98 235.12 180.9 280.58 201.05 218.59 61.12 173.12"/></mask><linearGradient id="linear-gradient-32" x1="-1916.91" y1="4161.25" x2="-1916.91" y2="3963.89" gradientTransform="matrix(0.1, -0.32, 0.71, 0.23, -2562.01, -1315.9)" gradientUnits="userSpaceOnUse"><stop offset="0" stop-opacity="0"/><stop offset="1" stop-opacity="0.3"/></linearGradient><mask id="mask-15" x="46.47" y="177.23" width="157.46" height="94.35" maskUnits="userSpaceOnUse"><polygon class="cls-7" points="60.02 177.23 53.24 209.11 46.47 240.99 190.38 271.57 203.93 207.82 60.02 177.23"/></mask><linearGradient id="linear-gradient-33" x1="-2955.19" y1="4194.49" x2="-2955.19" y2="3997.13" gradientTransform="matrix(0.07, -0.33, 0.73, 0.15, -2656.76, -1372.7)" xlink:href="#linear-gradient-32"/><mask id="mask-16" x="52.54" y="181.42" width="153.13" height="80.21" maskUnits="userSpaceOnUse"><polygon class="cls-8" points="59.36 181.43 55.95 213.84 52.54 246.25 198.86 261.63 205.68 196.8 59.36 181.43"/></mask><linearGradient id="linear-gradient-34" x1="-3995.56" y1="4179.09" x2="-3995.56" y2="3981.72" gradientTransform="matrix(0.03, -0.33, 0.74, 0.08, -2756.93, -1419.28)" xlink:href="#linear-gradient-32"/><mask id="mask-17" x="59.13" y="185.67" width="147.13" height="72.67" maskUnits="userSpaceOnUse"><polygon class="cls-9" points="59.13 185.67 59.13 222 59.13 258.34 206.26 258.34 206.26 185.67 59.13 185.67"/></mask><linearGradient id="linear-gradient-35" x1="-5037.87" y1="4115.2" x2="-5037.87" y2="3917.83" gradientTransform="matrix(0, -0.33, 0.75, 0, -2861.41, -1455.13)" xlink:href="#linear-gradient-23"/><linearGradient id="linear-gradient-36" x1="-217.41" y1="2663.12" x2="-217.41" y2="2465.76" gradientTransform="matrix(0.95, -0.31, 0.17, 0.52, -121.66, -1187.23)" gradientUnits="userSpaceOnUse"><stop offset="0" stop-opacity="0.6"/><stop offset="1" stop-opacity="0"/></linearGradient><linearGradient id="linear-gradient-37" x1="-856.46" y1="2316.39" x2="-856.46" y2="2119.02" gradientTransform="matrix(0.81, -0.59, 0.55, 0.76, -376.33, -1926.09)" gradientUnits="userSpaceOnUse"><stop offset="0" stop-opacity="0.5"/><stop offset="1" stop-opacity="0"/></linearGradient><linearGradient id="linear-gradient-38" x1="-614.77" y1="2051.27" x2="-614.77" y2="1853.9" gradientTransform="matrix(0.87, -0.5, 0.47, 0.81, -237.92, -1627.98)" xlink:href="#linear-gradient-37"/><linearGradient id="linear-gradient-39" x1="-400.39" y1="1760.68" x2="-400.39" y2="1563.31" gradientTransform="translate(-131.43 -1317.04) rotate(-24) scale(1 0.94)" xlink:href="#linear-gradient-36"/><mask id="mask-18" x="3.62" y="165.42" width="230.02" height="221.84" maskUnits="userSpaceOnUse"><polygon class="cls-10" points="195.15 165.42 99.38 185.78 3.62 206.13 42.12 387.26 233.65 346.55 195.15 165.42"/></mask><linearGradient id="linear-gradient-40" x1="-64.32" y1="1115.59" x2="-64.32" y2="918.22" gradientTransform="matrix(0.98, -0.21, 0.2, 0.92, -16.82, -670.29)" xlink:href="#linear-gradient-36"/><linearGradient id="linear-gradient-41" x1="-214.06" y1="1448.26" x2="-214.06" y2="1250.89" gradientTransform="matrix(0.95, -0.31, 0.29, 0.89, -59.71, -996.57)" xlink:href="#linear-gradient-36"/></defs><g id="Logos"><path d="M249.07,185.58h16.22q1,10,12,10a16.89,16.89,0,0,0,8-1.74,5.83,5.83,0,0,0,3.3-5.54,5.6,5.6,0,0,0-2.73-5.22,24.09,24.09,0,0,0-7.16-2.57L267.26,178q-16.6-3.61-16.6-18.95a18.19,18.19,0,0,1,6.78-14.38,24.53,24.53,0,0,1,8-4.28,35,35,0,0,1,10.84-1.55q11.28,0,18.5,5.45t7.73,16.48H286.33c-.17-3.13-1.16-5.46-3-7a10.5,10.5,0,0,0-7-2.31,11.32,11.32,0,0,0-6.81,1.9,7,7,0,0,0-.69,10.31,12.21,12.21,0,0,0,5.09,2.36L287,168.87A34,34,0,0,1,294,171a19.28,19.28,0,0,1,5.67,3.71,16.6,16.6,0,0,1,3.74,5.39,19.43,19.43,0,0,1-.46,15.45,19.25,19.25,0,0,1-5.32,6.53,26.82,26.82,0,0,1-8.62,4.43,38.26,38.26,0,0,1-11.72,1.65q-13.25,0-20.47-5.86T249.07,185.58Z"/><path d="M317.71,134.26V119.81h16.73v14.45Zm.26,72.36V140.47h16.22v66.15Z"/><path d="M351.33,228.66V140.47h16.22v8.93a22.86,22.86,0,0,1,7.89-7.73,22.32,22.32,0,0,1,11.44-2.79A23,23,0,0,1,406.58,149a32.72,32.72,0,0,1,4.79,11,57.29,57.29,0,0,1,1.55,13.53,56.57,56.57,0,0,1-1.55,13.56,33.11,33.11,0,0,1-4.79,11,22.93,22.93,0,0,1-19.7,10.14,22.36,22.36,0,0,1-11.41-2.79,22.69,22.69,0,0,1-7.92-7.73v31Zm16.22-50.18q0,7.8,3.55,12.45c2.36,3.11,6.15,4.66,11.34,4.66q6.33,0,10-3.45a12.19,12.19,0,0,0,3.64-9.29V164.16a12.13,12.13,0,0,0-3.61-9.25q-3.61-3.42-10-3.42c-5.19,0-9,1.55-11.34,4.66s-3.55,7.25-3.55,12.45Z"/><path d="M424.25,173.54A55.75,55.75,0,0,1,425.83,160a33.14,33.14,0,0,1,4.81-11,23.66,23.66,0,0,1,8.16-7.38,23.38,23.38,0,0,1,11.51-2.73,22.46,22.46,0,0,1,11.43,2.79,22.83,22.83,0,0,1,7.94,7.73v-8.93H485.9V205.6a25.73,25.73,0,0,1-2.48,11.66,23.51,23.51,0,0,1-6.62,8.17,28.9,28.9,0,0,1-9.55,4.85A38.8,38.8,0,0,1,456,231.9a52.23,52.23,0,0,1-10.89-1.08,27,27,0,0,1-8.95-3.55,19.87,19.87,0,0,1-6.34-6.43,25.2,25.2,0,0,1-3.26-9.66h16.17a9.76,9.76,0,0,0,3.53,6c1.84,1.43,4.66,2.15,8.48,2.15a25.92,25.92,0,0,0,5.58-.6,11.77,11.77,0,0,0,4.8-2.22,11.25,11.25,0,0,0,3.3-4.47,18.5,18.5,0,0,0,1.24-7.28v-7.1a23.26,23.26,0,0,1-7.78,7.73,21.72,21.72,0,0,1-11.34,2.79,23.41,23.41,0,0,1-11.51-2.73,24.1,24.1,0,0,1-8.22-7.41,33.7,33.7,0,0,1-4.94-11A53.71,53.71,0,0,1,424.25,173.54Zm16.85,9.31a12.21,12.21,0,0,0,3.69,9.16q3.68,3.59,10,3.58,7.8,0,11.36-4.69t3.56-12.42V168.6q0-7.8-3.56-12.45t-11.36-4.66q-6.36,0-10,3.55a12.19,12.19,0,0,0-3.65,9.12Z"/><path d="M499.36,187.8a19.34,19.34,0,0,1,5.58-13.87q5.56-5.84,16.09-6.78l18.31-1.53v-4.31q0-5.19-2.79-7.51a11.55,11.55,0,0,0-7.6-2.31,12.86,12.86,0,0,0-8.05,2.38,8.19,8.19,0,0,0-3.1,6.94H501.58a20.08,20.08,0,0,1,8.24-16.35,26.43,26.43,0,0,1,8.74-4.15,40.58,40.58,0,0,1,11-1.43q11.92,0,18.82,5.77t6.91,16.92V194h11.15v12.61H540.93l-.13-10.27h-.57a23.28,23.28,0,0,1-7.57,8.65q-4.73,3.19-12.39,3.2a22.14,22.14,0,0,1-8.33-1.52,20.65,20.65,0,0,1-6.62-4.25,19,19,0,0,1-4.41-6.4A21,21,0,0,1,499.36,187.8Zm16.85,1.85a4.78,4.78,0,0,0,2.73,4.45,14.49,14.49,0,0,0,7,1.49,11.94,11.94,0,0,0,9.79-4.39,16.3,16.3,0,0,0,3.58-10.65V178l-19.45,1.7c-2.41.25-3.63,1.68-3.68,4.3Z"/><path d="M566.9,153V140.47H580V119.81h16.22v20.66h16.48V153H596.23v41h16.48v12.61H580V153Z"/><path d="M620.67,173.41a44.21,44.21,0,0,1,2.15-14.16,32.62,32.62,0,0,1,6-10.9,26.7,26.7,0,0,1,9.4-7,29.6,29.6,0,0,1,12.21-2.47,30.1,30.1,0,0,1,12.21,2.41,27.94,27.94,0,0,1,9.39,6.62,28.62,28.62,0,0,1,6,10,37.44,37.44,0,0,1,2.06,12.61v8.18H637.53v4.37q0,6,3.9,9.22a14,14,0,0,0,9.25,3.26,13.2,13.2,0,0,0,8.7-2.79,11.65,11.65,0,0,0,4-7.85H679.6q-1.59,11-9.3,17.13t-19.82,6.12a29.85,29.85,0,0,1-12.56-2.54,26.3,26.3,0,0,1-9.37-7.09,31.78,31.78,0,0,1-5.85-11A46.93,46.93,0,0,1,620.67,173.41Zm16.86-7.28h26v-2.35a11.54,11.54,0,0,0-3.68-8.87,14.37,14.37,0,0,0-18.61,0,11.54,11.54,0,0,0-3.68,8.87Z"/><g class="cls-20"><g class="cls-21"><polygon class="cls-22" points="99.76 185.74 83.44 195.16 67.12 204.59 80.03 226.96 112.68 208.11 99.76 185.74"/></g><g class="cls-23"><polygon class="cls-24" points="97.27 182.65 79.12 197.35 60.97 212.04 92.86 251.42 129.15 222.03 97.27 182.65"/></g><g class="cls-25"><polygon class="cls-26" points="176.35 146.52 118.83 175.82 61.31 205.13 100.91 282.85 215.95 224.23 176.35 146.52"/></g><g class="cls-27"><polygon class="cls-28" points="176.14 146.66 117.64 173.94 59.13 201.22 95.99 280.28 213.01 225.71 176.14 146.66"/></g><g class="cls-29"><polygon class="cls-30" points="59.36 189.91 63.4 228.33 67.43 266.75 213.75 251.37 205.68 174.54 99.74 185.67 59.36 189.91"/></g><g class="cls-31"><polygon class="cls-32" points="83.22 148.57 53.45 161.83 23.68 175.09 83.52 309.49 143.07 282.98 99.74 185.67 83.22 148.57"/></g><g class="cls-33"><polygon class="cls-34" points="79.44 150.5 51.21 166.8 22.99 183.09 96.55 310.51 153 277.92 99.74 185.67 79.44 150.5"/></g><g class="cls-35"><polygon class="cls-36" points="75.87 152.82 49.51 171.97 23.14 191.13 109.62 310.16 162.35 271.84 99.74 185.67 75.87 152.82"/></g><g class="cls-37"><polygon class="cls-38" points="72.57 155.49 48.35 177.3 24.13 199.11 122.58 308.44 171.02 264.83 99.74 185.67 72.57 155.49"/></g><g class="cls-39"><polygon class="cls-40" points="69.56 158.5 47.76 182.72 25.95 206.94 135.28 305.38 178.9 256.94 99.74 185.67 69.56 158.5"/></g><g class="cls-41"><polygon class="cls-42" points="66.89 161.8 47.73 188.17 28.57 214.54 147.6 301.01 185.92 248.28 99.74 185.67 66.89 161.8"/></g><g class="cls-43"><polygon class="cls-44" points="64.58 165.37 48.28 193.59 31.98 221.82 159.4 295.38 191.99 238.93 99.74 185.67 64.58 165.37"/></g><g class="cls-45"><polygon class="cls-46" points="62.65 169.15 49.39 198.93 36.13 228.7 170.54 288.54 197.05 228.99 99.74 185.67 62.65 169.15"/></g><g class="cls-47"><polygon class="cls-48" points="61.12 173.12 51.05 204.12 40.98 235.12 180.9 280.58 201.05 218.59 99.74 185.67 61.12 173.12"/></g><g class="cls-49"><polygon class="cls-50" points="60.02 177.23 53.24 209.11 46.47 240.99 190.38 271.57 203.93 207.82 99.74 185.67 60.02 177.23"/></g><g class="cls-51"><polygon class="cls-52" points="59.36 181.43 55.95 213.84 52.54 246.25 198.86 261.63 205.68 196.8 99.74 185.67 59.36 181.43"/></g><g class="cls-53"><polygon class="cls-54" points="59.13 185.67 59.13 222 59.13 258.34 206.26 258.34 206.26 185.67 99.74 185.67 59.13 185.67"/></g><polygon class="cls-55" points="181.59 132.83 88.48 163.09 -4.63 193.34 28.75 296.04 214.97 235.54 181.59 132.83"/><polygon class="cls-56" points="178.59 128.23 99.38 185.78 20.18 243.32 129.02 393.13 287.43 278.04 178.59 128.23"/><polygon class="cls-57" points="184.17 136.82 99.38 185.78 14.6 234.73 107.19 395.09 276.76 297.19 184.17 136.82"/><polygon class="cls-58" points="188.82 145.96 99.38 185.78 9.95 225.59 85.26 394.76 264.14 315.12 188.82 145.96"/><g class="cls-59"><polygon class="cls-60" points="195.15 165.42 99.38 185.78 3.62 206.13 42.12 387.26 233.65 346.55 195.15 165.42"/></g><polygon class="cls-61" points="192.49 155.52 99.38 185.78 6.27 216.03 63.5 392.14 249.72 331.63 192.49 155.52"/></g><path d="M130.75,71.15A61.58,61.58,0,0,0,99.84,186l61.83-44.92L191,119.78A61.6,61.6,0,0,0,130.75,71.15Z"/><path d="M701.19,195.81a1.3,1.3,0,0,1,1.38-1.38h6.8a1.31,1.31,0,0,1,1.39,1.38v9.29a1.32,1.32,0,0,1-1.39,1.39h-6.8a1.31,1.31,0,0,1-1.38-1.39Z"/><path d="M734.62,122.75a1.31,1.31,0,0,1-1.38-1.39V113.6a1.31,1.31,0,0,1,1.38-1.39h6.11a1.32,1.32,0,0,1,1.39,1.39v7.76a1.32,1.32,0,0,1-1.39,1.39Zm.7,83.74a1.32,1.32,0,0,1-1.39-1.39V141.74a1.32,1.32,0,0,1,1.39-1.39H740a1.31,1.31,0,0,1,1.38,1.39V205.1a1.31,1.31,0,0,1-1.38,1.39Z"/><path d="M764.73,190.68c-1.39-4.43-2.22-9.29-2.22-17.33s.83-12.75,2.22-17.19c3.61-10.95,12.63-17.19,24.7-17.19s21.23,6.24,24.84,17.19c1.38,4.44,2.21,9.29,2.21,17.19s-.83,12.9-2.21,17.33c-3.61,10.95-12.63,17.19-24.84,17.19S768.34,201.63,764.73,190.68Zm42.32-2.35c1.25-3.75,1.8-7.77,1.8-15s-.55-11.09-1.8-14.83c-2.64-7.91-9-12.34-17.62-12.34s-14.85,4.43-17.48,12.34c-1.25,3.74-1.81,7.76-1.81,14.83s.56,11.23,1.81,15c2.63,7.9,9,12.33,17.48,12.33S804.41,196.23,807.05,188.33Z"/><path d="M934.91,163.33c0-15.12.89-20.83,2.29-25.15,4.31-13,13.71-19.31,27.3-19.31,11.82,0,21.09,5.46,26,16a1.2,1.2,0,0,1-.38,1.65l-4.19,2a1.14,1.14,0,0,1-1.65-.51c-3.94-7.37-10-12.32-19.82-12.32-10.54,0-17,5-20.32,14.35-1.14,3.43-1.9,8.77-1.9,23.25s.76,19.81,1.9,23.24c3.3,9.4,9.78,14.35,20.32,14.35,9.78,0,15.88-4.95,19.82-12.32a1.15,1.15,0,0,1,1.65-.51l4.19,2a1.2,1.2,0,0,1,.38,1.65c-4.95,10.54-14.22,16-26,16-13.59,0-23-6.35-27.3-19.3C935.8,184.16,934.91,178.44,934.91,163.33Z"/><path d="M1060.4,206.51c-.76,0-1.14-.25-1.52-1.14l-18.16-37.47h-23.5a.67.67,0,0,0-.76.76v36.58a1.2,1.2,0,0,1-1.27,1.27h-4.7a1.2,1.2,0,0,1-1.27-1.27V121.41a1.2,1.2,0,0,1,1.27-1.27h29c16.25,0,26.29,9.15,26.29,23.88,0,11.94-6.61,20.2-17.66,22.86l18.8,38.23c.51.77.13,1.4-.63,1.4ZM1058.5,144c0-10.8-6.86-17-19.18-17h-22.1a.67.67,0,0,0-.76.76v32.52a.67.67,0,0,0,.76.76h22.1C1051.64,161,1058.5,154.94,1058.5,144Z"/><path d="M1087.33,121.41a1.2,1.2,0,0,1,1.27-1.27h4.83a1.9,1.9,0,0,1,1.91,1.27l28.07,61.86h.5l27.44-61.86a1.86,1.86,0,0,1,1.78-1.27h4.95a1.2,1.2,0,0,1,1.27,1.27v83.83a1.2,1.2,0,0,1-1.27,1.27h-4.7a1.2,1.2,0,0,1-1.27-1.27V137.67h-.38l-24.89,54.74a2.13,2.13,0,0,1-2.29,1.4H1122a2.07,2.07,0,0,1-2.16-1.4L1095,137.67h-.39v67.57a1.2,1.2,0,0,1-1.27,1.27h-4.7a1.2,1.2,0,0,1-1.27-1.27Z"/><path d="M874.9,208.1a1.13,1.13,0,0,1-1.19-1.2V110.68a1.13,1.13,0,0,1,1.19-1.2h3.36a1.13,1.13,0,0,1,1.19,1.2V206.9a1.13,1.13,0,0,1-1.19,1.2Z"/></g></svg>